<?xml version="1.0" encoding="UTF-8" standalone="no"?>
<!-- Created with Inkscape (http://www.inkscape.org/) -->

<svg
   xmlns:dc="http://purl.org/dc/elements/1.1/"
   xmlns:cc="http://creativecommons.org/ns#"
   xmlns:rdf="http://www.w3.org/1999/02/22-rdf-syntax-ns#"
   xmlns:svg="http://www.w3.org/2000/svg"
   xmlns="http://www.w3.org/2000/svg"
   xmlns:sodipodi="http://sodipodi.sourceforge.net/DTD/sodipodi-0.dtd"
   xmlns:inkscape="http://www.inkscape.org/namespaces/inkscape"
   width="210mm"
   height="297mm"
   viewBox="0 0 744.09448819 1052.3622047"
   id="svg4848"
   version="1.1"
   inkscape:version="0.91 r13725"
   sodipodi:docname="leyawiin.svg">
  <defs
     id="defs4850" />
  <sodipodi:namedview
     id="base"
     pagecolor="#ffffff"
     bordercolor="#666666"
     borderopacity="1.0"
     inkscape:pageopacity="0.0"
     inkscape:pageshadow="2"
     inkscape:zoom="5.6"
     inkscape:cx="268.17214"
     inkscape:cy="287.82914"
     inkscape:document-units="px"
     inkscape:current-layer="layer1"
     showgrid="false"
     inkscape:window-width="1920"
     inkscape:window-height="1017"
     inkscape:window-x="1912"
     inkscape:window-y="-8"
     inkscape:window-maximized="1" />
  <metadata
     id="metadata4853">
    <rdf:RDF>
      <cc:Work
         rdf:about="">
        <dc:format>image/svg+xml</dc:format>
        <dc:type
           rdf:resource="http://purl.org/dc/dcmitype/StillImage" />
        <dc:title></dc:title>
      </cc:Work>
    </rdf:RDF>
  </metadata>
  <g
     inkscape:label="Layer 1"
     inkscape:groupmode="layer"
     id="layer1">
    <path
       style="color:#000000;clip-rule:nonzero;display:inline;overflow:visible;visibility:visible;opacity:1;isolation:auto;mix-blend-mode:normal;color-interpolation:sRGB;color-interpolation-filters:linearRGB;solid-color:#000000;solid-opacity:1;fill:#000000;fill-opacity:0.14534883;fill-rule:evenodd;stroke:none;stroke-width:1;stroke-linecap:butt;stroke-linejoin:miter;stroke-miterlimit:4;stroke-dasharray:none;stroke-dashoffset:0;stroke-opacity:1;color-rendering:auto;image-rendering:auto;shape-rendering:auto;text-rendering:auto;enable-background:accumulate"
       d="M 284.05078 649.95312 C 280.80342 655.28643 277.15775 681.04896 275.74609 686.63477 C 275.60189 689.9675 275.36165 693.3458 274.99219 696.27148 C 274.45678 700.29097 273.497 704.91274 273.48242 709.48242 C 273.38135 712.93281 273.35403 716.45786 274.88867 719.20117 C 275.8388 721.18357 277.10621 724.98646 277.63477 727.58789 C 278.48061 730.65354 279.79298 732.52231 279.52148 736.45703 C 280.37127 740.90675 280.76177 746.60947 283.12305 750.79297 C 284.3626 753.81756 285.47747 756.50186 286.25586 759.23242 L 284.10547 760.04883 L 269.08008 759.92383 L 266.69336 759.24219 C 266.6249 756.97833 266.35207 754.74355 265.4668 752.5918 C 264.0009 748.3995 264.23869 743.70307 262.91406 740.04297 C 262.24302 737.53018 261.839 735.00586 260.27148 733.06055 C 259.15192 731.10728 258.04848 730.51427 256.875 729.28516 C 255.72098 727.20642 252.92842 723.97549 251.58984 722.11523 C 249.95502 719.87672 249.15518 718.74864 248.19336 716.83008 C 247.30023 714.55243 247.4158 711.14824 247.43945 708.14844 C 246.93787 705.14761 243.09558 703.74327 241.02148 702.48828 C 239.63239 702.28437 236.9137 701.52232 235.92773 702.29883 C 232.84402 703.26403 233.97686 706.94031 232.49219 709.8125 L 232.41602 710.11523 L 232.3418 710.41406 C 232.3697 715.77199 231.2954 716.14288 229.69922 720.98242 C 228.68968 724.88432 226.83198 727.45856 226.30273 731.55078 C 225.10815 733.64789 225.5036 736.3713 224.79297 738.34375 C 224.03488 740.79095 223.14751 742.95065 222.15039 745.13867 C 220.6434 747.51261 220.50024 750.90285 219.71484 753.45312 C 219.72644 755.70832 218.0519 757.30832 217.67773 759.5957 L 216.07227 760.39844 L 191.07227 758.79102 L 189.05664 757.9668 C 188.5371 756.27903 187.94548 754.65446 188.18164 752.44336 C 188.02643 749.53756 188.54759 745.94162 187.80273 743.62891 C 185.78307 740.78396 183.35885 734.75072 183.1582 733.85547 C 182.63176 729.35842 179.26089 726.68626 180.63281 722.17383 C 180.38474 719.8856 181.12577 716.60779 180.25391 714.94336 C 180.20471 711.40566 178.95276 706.9712 180.82031 703.80859 C 182.95315 701.93311 185.52021 698.64885 187.80273 696.07227 C 193.05057 692.74362 196.75025 659.33425 197.99414 653.44531 L 83.841797 653.44531 L 83.841797 947.30664 L 193.46484 949.55859 C 192.60716 948.8378 193.12379 885.20506 192.69531 884.24609 C 191.99114 880.14376 192.88739 875.99867 190.44531 873.08984 C 189.02884 869.21041 187.98793 863.7012 187.0293 859.18945 C 186.40077 855.48158 185.83341 851.46672 186.70117 847.26172 C 187.23102 842.45043 186.99181 837.29609 187.06641 832.26367 C 186.30522 828.31419 186.69124 823.74402 187.01758 819.64453 C 187.43444 816.05974 188.25852 812.97592 188.68555 809.72461 L 194.10742 806.73633 L 219.64258 803.16602 L 222.91602 803.5332 C 223.96723 806.85401 222.8695 810.05178 223.93945 813.38672 C 224.63037 815.54025 222.45838 819.39771 223.74609 822.31445 C 224.73946 826.18107 229.65766 831.15561 230.45312 835.72461 C 231.21124 837.23745 230.66372 840.05752 230.83203 842.16016 C 230.74973 845.68687 233.00456 847.222 235.11719 846.39453 C 237.63558 845.40813 236.93199 846.04529 240.26758 838.74414 C 241.44918 838.11457 243.80391 834.45615 245.55078 833.08203 C 246.07513 830.4031 251.77317 830.95691 253.67188 827.88281 C 255.34588 825.1725 256.40797 819.35354 258.21484 816.14648 C 260.4265 813.21196 257.73253 810.89928 258.00781 807.16992 C 257.51455 802.58338 259.79438 799.02668 259.51758 794.58398 C 260.64495 791.50073 260.90372 788.82498 262.1582 785.90234 C 262.91818 781.97821 264.80064 777.65325 265.55664 773.88867 C 266.59676 771.56468 266.87863 769.00022 266.6875 766.27539 C 266.6704 765.71697 266.66779 765.15653 266.66992 764.5957 L 268.89062 764.2168 L 284.48438 764.84766 L 287.07031 766.76953 L 287.07031 784.76953 C 286.11742 788.63951 285.0191 793.5919 283.29492 798.35742 C 282.67896 803.4614 280.93423 804.96994 281.03125 808.99219 C 280.6444 811.62467 281.16914 814.5518 279.89844 816.85156 C 279.52981 820.25144 279.07594 823.81477 279.14453 827.41992 C 278.64484 830.33669 278.53764 833.41648 278.38867 836.47852 C 278.60101 841.70727 277.7079 847.38661 279.52148 851.95312 C 280.19543 856.45497 282.81849 861.52382 284.42773 865.91992 C 285.06817 868.54003 287.45044 872.5195 288.20312 874.22266 C 288.97388 876.22679 290.06397 877.76944 290.84375 879.50781 C 291.96267 881.13003 292.88517 882.64836 293.46094 884.80859 C 294.4155 885.96791 295.21643 951.30167 295.37305 951.82227 L 401.53516 952.35742 L 401.53516 649.95312 L 284.05078 649.95312 z M 190.89258 763.25586 L 215.44727 764.14844 L 217.27539 765.55078 C 217.21232 766.45487 217.17514 767.36917 217.24414 768.32812 C 217.24449 772.80223 217.24365 777.27596 217.24414 781.75 C 218.19617 784.41805 219.37336 788.07551 219.88477 791.56445 C 220.11244 793.16942 220.55137 794.93724 221.0293 796.73438 L 217.94727 798.79102 L 193.66016 801.64844 L 188.54297 799.58008 C 188.53563 799.19724 188.53855 798.80476 188.55859 798.39453 C 189.49011 794.20834 189.19145 789.58305 190.44531 785.14648 C 191.24874 781.3847 190.62563 777.03265 190.82227 773.01953 C 190.84077 769.67714 190.85036 766.50069 189.96484 763.40234 L 190.89258 763.25586 z "
       id="path5398" />
    <path
       style="color:#000000;clip-rule:nonzero;display:inline;overflow:visible;visibility:visible;opacity:1;isolation:auto;mix-blend-mode:normal;color-interpolation:sRGB;color-interpolation-filters:linearRGB;solid-color:#000000;solid-opacity:1;fill:#ffffff;fill-opacity:1;fill-rule:evenodd;stroke:none;stroke-width:1;stroke-linecap:butt;stroke-linejoin:miter;stroke-miterlimit:4;stroke-dasharray:none;stroke-dashoffset:0;stroke-opacity:1;color-rendering:auto;image-rendering:auto;shape-rendering:auto;text-rendering:auto;enable-background:accumulate"
       d="M 120 642.89844 L 114.28516 692.71875 L 115.89258 734.50586 L 118.57227 743.25586 L 162.32227 759.14844 L 169.15625 760.06641 L 171.07227 775.13086 L 171.42773 787.27344 L 174.01758 796.38086 L 172.67773 803.16602 L 162.85742 805.39844 L 164.64258 811.73633 L 171.875 809.14844 L 175 813.07617 L 177.94727 814.14844 L 179.19727 809.68359 L 181.69727 807.71875 L 186.51758 808.88086 L 192.76758 805.39844 L 219.55273 801.82617 L 223.39258 802.18359 L 224.91016 802.27344 L 230.71484 799.32617 L 231.69727 801.20117 L 239.55273 805.48633 L 248.75 801.73633 L 249.73242 798.07617 L 248.125 795.93359 L 247.14258 794.50586 L 253.03516 770.84375 L 251.42773 770.57617 L 242.58984 772.36133 L 241.69727 773.07617 L 241.875 780.93359 L 237.05273 781.11133 L 236.25 772.63086 L 233.48242 771.55859 L 233.22852 767.81445 L 239.01758 769.23633 L 268.48242 763.25586 L 284.55273 763.52344 L 288.03516 766.29102 L 294.46484 765.13086 L 295.71484 766.82617 L 297.85742 784.23633 L 298.21484 787.27344 L 292.14258 807.00586 L 289.64258 808.25586 L 288.03516 808.52344 L 282.32227 806.55859 L 281.96484 807.63086 L 281.78516 811.11133 L 288.83984 811.46875 L 291.07227 812.80859 L 291.25 815.30859 L 289.82227 817.36133 L 286.51758 820.21875 L 285.625 830.13086 L 288.30273 832.45117 L 294.73242 828.96875 L 298.92773 820.39844 L 303.66016 816.64844 L 306.51758 816.29102 L 310.26758 819.32617 L 313.46289 816.61719 L 309.10742 813.27148 L 309.10742 811.125 L 316.93555 791.42773 L 318.89258 777.0332 L 320.72266 774.94922 L 323.3125 774.57031 L 338.90625 776.84375 L 362.14062 781.38867 L 382.5957 777.0957 L 416.18359 759.41797 L 414.41602 752.09375 L 380.32227 771.03516 L 361.63477 775.58008 L 326.33984 769.86133 L 324.19727 769.86133 L 322.14258 768.79102 L 321.78516 764.50586 L 320.53516 762.00586 L 317.76758 759.05859 L 315.44727 751.38086 L 316.78516 748.43359 L 321.875 746.73633 L 319.91016 741.64844 L 312.23242 744.41602 L 306.42773 743.16602 L 304.01758 742.00586 L 302.41016 736.55859 L 301.69727 734.41602 L 298.66016 735.13086 L 299.46484 738.70117 L 300.44727 741.82617 L 299.375 743.70117 L 297.58984 744.05859 L 295.80273 743.34375 L 294.73242 741.02344 L 290.80273 741.82617 L 290.98242 744.05859 L 290.625 746.11133 L 293.48242 747.45117 L 295.625 754.23633 L 294.10742 756.82617 L 287.67773 758.79102 L 287.5 759.86133 L 284.19727 761.02344 L 268.83984 760.93359 L 265.89258 759.95117 L 263.30273 759.72852 L 261.96484 758.43359 L 262.41016 759.59375 L 239.91211 763.33203 L 233.4707 762.07031 L 234.29297 758.1543 L 237.51172 756.13477 L 240.98438 752.66211 L 247.17188 752.53711 L 253.48438 751.58984 L 256.19922 750.83203 L 254.9375 746.41211 L 251.5918 747.35938 L 247.04492 748.05469 L 242.68945 747.99023 L 242.24805 746.79102 L 246.28711 740.91992 L 247.29883 737.06836 L 246.35156 734.03711 L 244.70898 732.26953 L 242.18359 731.13281 L 240.47852 729.80859 L 239.40625 728.54492 L 238.83789 727.09375 C 238.83789 727.09375 238.77539 726.65098 238.77539 726.39844 C 238.77539 726.14591 238.71094 724.82031 238.71094 724.82031 L 238.71094 723.74609 L 236.94336 722.86328 L 236.3125 724.25195 C 236.3125 724.25195 235.87109 725.2625 235.87109 725.76758 C 235.87109 726.27266 235.93292 727.78848 235.99609 728.04102 C 236.05919 728.29356 237.63867 730.3125 237.63867 730.3125 L 238.96484 731.13281 L 241.23633 731.89062 L 242.68945 732.77539 L 244.39453 734.29102 L 245.08789 736.24805 L 245.15234 737.57422 L 244.45703 739.59375 L 243.19336 740.91992 L 241.99414 741.99219 L 240.85742 743.00391 C 240.85742 743.00391 240.16465 744.07558 239.91211 744.32812 C 239.65957 744.58066 239.34375 745.15039 239.34375 745.15039 L 238.58594 746.53906 L 238.01758 747.29688 L 237.00781 748.24219 L 235.99609 748.43164 L 234.60742 748.43164 C 234.60742 748.43164 233.59693 748.30596 233.28125 748.17969 C 232.96558 748.05342 232.08203 747.67578 232.08203 747.67578 L 231.07227 747.16992 L 230 747.29688 L 228.98828 750.32617 L 229.36719 751.27344 C 229.36719 751.27344 230.37833 751.90498 230.63086 752.03125 C 230.8834 752.15751 232.02031 752.34766 232.52539 752.34766 C 233.03047 752.34766 234.86133 752.03125 234.86133 752.03125 L 235.55469 752.97852 L 235.36523 754.17773 L 234.86133 755.0625 C 234.86133 755.0625 234.79745 755.18892 234.35547 755.63086 C 233.91353 756.07281 233.2812 756.57754 233.0918 756.83008 C 232.9024 757.08262 232.65039 757.39844 232.65039 757.39844 L 231.95703 758.59766 L 231.45117 760.30273 L 230.75586 761.50195 L 222.29688 759.35547 L 219.51953 759.41797 L 216.36133 761.18555 L 190.85547 759.60742 L 188.14062 758.59766 L 186.24609 756.83008 L 179.80664 756.76562 L 164.9082 753.04102 L 162.57227 753.60938 L 124.24805 739.7207 L 120.46094 733.40625 L 119.28516 692.00586 L 127.32227 643.25586 L 120 642.89844 z M 179.40625 761.44336 L 186.25 762.36133 L 190.08984 762.27344 L 216.42773 763.25586 L 218.66016 765.13086 L 223.03516 765.30859 L 230.48047 767.13867 L 230.26758 771.20117 L 229.19727 772.18359 L 231.07227 790.84375 L 227.41016 792.54102 L 226.78516 793.96875 L 225.71484 795.57617 L 222.23242 797.36133 L 219.28516 799.23633 L 193.30273 802.71875 L 177.94727 797.18359 L 175.89258 790.21875 L 177.85742 787.98633 L 176.33984 785.48633 L 179.40625 761.44336 z M 242.94727 784.50586 L 242.67773 793.43359 L 244.55273 796.73633 L 242.05273 799.95117 L 237.41016 799.41602 L 234.375 795.93359 L 236.78516 793.07617 L 236.51758 785.30859 L 236.25 784.59375 L 236.60742 784.77344 L 242.94727 784.50586 z "
       id="path5662" />
    <path
       style="opacity:1;fill:#7a200d;fill-opacity:1;fill-rule:evenodd;stroke:none;stroke-width:1;stroke-linecap:butt;stroke-linejoin:miter;stroke-miterlimit:4;stroke-dasharray:none;stroke-dashoffset:0;stroke-opacity:1"
       d="M 256.875 735.39844 A 1.9642857 1.9642857 0 0 0 255.00586 736.76172 L 231.13477 737.25781 A 1.9642857 1.9642857 0 0 0 229.91016 736.82617 A 1.9642857 1.9642857 0 0 0 227.94727 738.79102 A 1.9642857 1.9642857 0 0 0 228.01953 739.32227 L 221.31641 756.12305 A 1.9642857 1.9642857 0 0 0 220.35742 757.80859 A 1.9642857 1.9642857 0 0 0 220.57812 758.71094 L 220.20117 765.16602 A 1.9642857 1.9642857 0 0 0 219.28516 766.82617 A 1.9642857 1.9642857 0 0 0 220.00781 768.3457 L 222.28906 792.97656 A 1.9642857 1.9642857 0 0 0 222.23242 793.43359 A 1.9642857 1.9642857 0 0 0 223.44531 795.24805 L 225.69922 804.09766 A 3.2142859 3.2142859 0 0 0 225.625 804.77344 A 3.2142859 3.2142859 0 0 0 226.97656 807.38867 L 226.54297 816.72461 A 3.2142859 3.2142859 0 0 0 225.625 818.96875 A 3.2142859 3.2142859 0 0 0 227.32227 821.80273 L 229.75781 827.56836 A 1.9642857 1.9642857 0 0 0 229.55273 828.43359 A 1.9642857 1.9642857 0 0 0 231.51758 830.39844 A 1.9642857 1.9642857 0 0 0 233.11523 829.57422 L 243.92773 829.67773 A 1.9642857 1.9642857 0 0 0 245.44727 830.39844 A 1.9642857 1.9642857 0 0 0 247.41016 828.43359 A 1.9642857 1.9642857 0 0 0 247.26367 827.69336 L 251.49609 822.14453 A 3.2142859 3.2142859 0 0 0 251.96484 822.18359 A 3.2142859 3.2142859 0 0 0 255.17773 818.96875 A 3.2142859 3.2142859 0 0 0 253.62109 816.21875 L 253.32617 807.67969 A 3.2142859 3.2142859 0 0 0 255.17773 804.77344 A 3.2142859 3.2142859 0 0 0 255.14062 804.30078 L 255.17773 804.32617 L 264.31836 768.38477 A 1.9642857 1.9642857 0 0 0 265.08984 766.82617 A 1.9642857 1.9642857 0 0 0 264.63867 765.57617 L 264.10938 759.0957 A 1.9642857 1.9642857 0 0 0 265 757.45117 A 1.9642857 1.9642857 0 0 0 263.67969 755.59766 L 258.39062 738.60938 A 1.9642857 1.9642857 0 0 0 258.83984 737.36133 A 1.9642857 1.9642857 0 0 0 256.875 735.39844 z M 255.26172 738.47852 A 1.9642857 1.9642857 0 0 0 256.44531 739.27734 L 261.66211 756.05078 A 1.9642857 1.9642857 0 0 0 261.2168 756.7168 L 240.39258 760.25195 A 1.9642857 1.9642857 0 0 0 239.10742 759.77344 A 1.9642857 1.9642857 0 0 0 237.74609 760.32227 L 224.17383 757.16016 A 1.9642857 1.9642857 0 0 0 223.71289 756.42383 L 229.96484 740.75391 A 1.9642857 1.9642857 0 0 0 231.81445 739.26758 L 255.26172 738.47852 z M 261.66992 758.85938 A 1.9642857 1.9642857 0 0 0 261.98047 759.10547 L 262.1582 765.11914 A 1.9642857 1.9642857 0 0 0 261.37695 765.93359 L 240.77539 769.81641 L 240.65039 762.94922 A 1.9642857 1.9642857 0 0 0 240.84961 762.63867 L 261.66992 758.85938 z M 223.48438 759.38867 L 237.375 762.6582 A 1.9642857 1.9642857 0 0 0 237.57812 762.96875 L 237.51758 769.47266 L 223.02344 765.99023 A 1.9642857 1.9642857 0 0 0 222.62305 765.42383 L 223.38477 759.45898 A 1.9642857 1.9642857 0 0 0 223.48438 759.38867 z M 261.37305 767.89258 L 251.53125 801.38672 L 242.3125 795.85547 A 1.9642857 1.9642857 0 0 0 241.41016 794.36719 L 240.74023 772.32227 A 1.9642857 1.9642857 0 0 0 241.06445 771.71484 L 261.37305 767.89258 z M 223.0957 768.16797 L 237.54102 772.16992 A 1.9642857 1.9642857 0 0 0 237.82422 772.51367 L 238.99414 794.60742 A 1.9642857 1.9642857 0 0 0 238.39453 795.9668 L 229.94727 801.26562 L 225.99023 794.23242 A 1.9642857 1.9642857 0 0 0 226.16016 793.43359 A 1.9642857 1.9642857 0 0 0 225.39258 791.87891 L 223.0957 768.16797 z M 241.00977 797.87305 L 248.75781 805.00195 A 3.2142859 3.2142859 0 0 0 250.32812 807.53516 L 250.11133 816.34766 A 3.2142859 3.2142859 0 0 0 249.35938 817.08984 L 231.67188 817.45703 A 3.2142859 3.2142859 0 0 0 230.86328 816.47656 L 230.77148 807.33789 A 3.2142859 3.2142859 0 0 0 232.05273 804.77344 A 3.2142859 3.2142859 0 0 0 232.04883 804.64062 L 240.03711 797.95703 A 1.9642857 1.9642857 0 0 0 240.35742 797.98633 A 1.9642857 1.9642857 0 0 0 241.00977 797.87305 z M 248.94727 820.07031 A 3.2142859 3.2142859 0 0 0 249.03516 820.28516 L 245.17383 826.49023 A 1.9642857 1.9642857 0 0 0 243.7207 827.49609 L 233.3125 827.64062 A 1.9642857 1.9642857 0 0 0 232.37695 826.66992 L 230.78711 821.52344 A 3.2142859 3.2142859 0 0 0 231.69727 820.43359 L 248.94727 820.07031 z "
       id="path5407" />
    <path
       style="opacity:1;fill:#7a200d;fill-opacity:1;fill-rule:evenodd;stroke:none;stroke-width:1;stroke-linecap:butt;stroke-linejoin:miter;stroke-miterlimit:4;stroke-dasharray:none;stroke-dashoffset:0;stroke-opacity:1"
       d="M 186.05664 742.37109 A 1.5783633 1.5783633 0 0 0 184.61328 743.31445 L 172.86523 744.81836 A 1.5783633 1.5783633 0 0 0 171.78906 744.39258 A 1.5783633 1.5783633 0 0 0 170.2168 745.84961 L 162.33594 750.33398 A 1.5783633 1.5783633 0 0 0 162.19336 750.32617 A 1.5783633 1.5783633 0 0 0 160.61328 751.9043 A 1.5783633 1.5783633 0 0 0 160.81836 752.67578 L 159.63086 756.69531 A 1.5783633 1.5783633 0 0 0 158.4668 758.21875 A 1.5783633 1.5783633 0 0 0 158.71289 759.06055 L 156.45117 771.22461 A 1.5783633 1.5783633 0 0 0 155.81641 772.48633 A 1.5783633 1.5783633 0 0 0 156.28906 773.61133 L 155.96875 788.55078 A 1.5783633 1.5783633 0 0 0 155.18555 789.91211 A 1.5783633 1.5783633 0 0 0 156.55273 791.47461 L 159.85547 806.43359 A 1.5783633 1.5783633 0 0 0 159.35156 807.58984 A 1.5783633 1.5783633 0 0 0 160.46484 809.09766 L 163.20312 821.49023 A 1.5783633 1.5783633 0 0 0 163.01367 822.23633 A 1.5783633 1.5783633 0 0 0 164.5918 823.81445 A 1.5783633 1.5783633 0 0 0 165.17969 823.69922 L 171.98242 827.13672 A 1.5783633 1.5783633 0 0 0 173.55664 828.61328 A 1.5783633 1.5783633 0 0 0 174.54883 828.26172 L 183.15625 828.04102 A 1.5783633 1.5783633 0 0 0 184.54297 828.86523 A 1.5783633 1.5783633 0 0 0 186.12109 827.28711 A 1.5783633 1.5783633 0 0 0 184.54297 825.70898 A 1.5783633 1.5783633 0 0 0 183.31836 826.29492 L 175.04102 826.50586 A 1.5783633 1.5783633 0 0 0 173.55664 825.45703 A 1.5783633 1.5783633 0 0 0 172.85156 825.625 L 166.16992 822.25 A 1.5783633 1.5783633 0 0 0 166.16992 822.23633 A 1.5783633 1.5783633 0 0 0 164.80664 820.67383 L 162.14062 808.60352 A 1.5783633 1.5783633 0 0 0 162.50781 807.58984 A 1.5783633 1.5783633 0 0 0 161.57812 806.15234 L 158.24609 791.06445 L 157.68945 791.1875 A 1.5783633 1.5783633 0 0 0 158.3418 789.91211 A 1.5783633 1.5783633 0 0 0 157.70898 788.65039 L 158.02344 773.93164 A 1.5783633 1.5783633 0 0 0 158.97266 772.48633 A 1.5783633 1.5783633 0 0 0 158.23438 771.15234 L 160.35156 759.76562 A 1.5783633 1.5783633 0 0 0 161.625 758.21875 A 1.5783633 1.5783633 0 0 0 161.28516 757.24023 L 162.39844 753.46875 A 1.5783633 1.5783633 0 0 0 163.77148 751.9043 A 1.5783633 1.5783633 0 0 0 163.72656 751.54492 L 171.06445 747.37109 A 1.5783633 1.5783633 0 0 0 171.78906 747.54883 A 1.5783633 1.5783633 0 0 0 173.30469 746.4082 L 184.82227 744.93359 A 1.5783633 1.5783633 0 0 0 186.05664 745.5293 A 1.5783633 1.5783633 0 0 0 187.63672 743.94922 A 1.5783633 1.5783633 0 0 0 186.05664 742.37109 z "
       id="path5505" />
    <path
       style="opacity:1;fill:#7a200d;fill-opacity:1;fill-rule:evenodd;stroke:none;stroke-width:1;stroke-linecap:butt;stroke-linejoin:miter;stroke-miterlimit:4;stroke-dasharray:none;stroke-dashoffset:0;stroke-opacity:1"
       d="M 296.32422 713.92383 A 1.5783633 1.5783633 0 0 0 295.02539 714.60742 L 277.06836 714.9043 A 1.5783633 1.5783633 0 0 0 275.9707 714.45898 A 1.5783633 1.5783633 0 0 0 274.39258 716.03711 A 1.5783633 1.5783633 0 0 0 275.9707 717.61523 A 1.5783633 1.5783633 0 0 0 277.42773 716.63867 L 294.99219 716.34961 A 1.5783633 1.5783633 0 0 0 296.32422 717.08008 A 1.5783633 1.5783633 0 0 0 297.42188 716.63672 L 303.14453 718.72461 A 1.5783633 1.5783633 0 0 0 304.65625 719.85742 A 1.5783633 1.5783633 0 0 0 305.29297 719.7207 L 313.18164 725.04102 A 1.5783633 1.5783633 0 0 0 313.17969 725.09766 A 1.5783633 1.5783633 0 0 0 314.30859 726.60938 L 323.01758 747.92969 A 1.5783633 1.5783633 0 0 0 323.00195 748.13477 A 1.5783633 1.5783633 0 0 0 324.00391 749.60156 L 326.92188 768.21875 A 1.5783633 1.5783633 0 0 0 326.57227 769.20508 A 1.5783633 1.5783633 0 0 0 327.31445 770.54102 L 327.27344 773.9668 A 1.5783633 1.5783633 0 0 0 326.57227 775.27734 A 1.5783633 1.5783633 0 0 0 327.20703 776.53906 L 326.125 786.13867 A 1.5783633 1.5783633 0 0 0 325.14453 787.59766 A 1.5783633 1.5783633 0 0 0 325.75391 788.8418 L 324.08789 799.38672 A 1.5783633 1.5783633 0 0 0 323.17969 800.8125 A 1.5783633 1.5783633 0 0 0 323.41797 801.64453 L 317.86523 813.3457 A 1.5783633 1.5783633 0 0 0 316.39453 814.91992 A 1.5783633 1.5783633 0 0 0 316.39844 815.01367 L 307.40039 822.60352 A 1.5783633 1.5783633 0 0 0 306.72266 822.44922 A 1.5783633 1.5783633 0 0 0 305.14453 824.02734 A 1.5783633 1.5783633 0 0 0 305.37891 824.84961 L 298.85938 833.50781 L 298.86523 833.51172 A 1.5783633 1.5783633 0 0 1 298.86328 833.51367 A 1.5783633 1.5783633 0 0 0 298.00195 834.90234 L 291.02734 838.81055 A 1.5783633 1.5783633 0 0 0 290.11523 838.51953 A 1.5783633 1.5783633 0 0 0 288.81836 839.19922 L 281.47656 838.94531 A 1.5783633 1.5783633 0 0 0 280.11523 838.16211 A 1.5783633 1.5783633 0 0 0 278.53711 839.74219 A 1.5783633 1.5783633 0 0 0 280.11523 841.32031 A 1.5783633 1.5783633 0 0 0 281.37891 840.68359 L 288.7793 840.93945 A 1.5783633 1.5783633 0 0 0 290.11523 841.67578 A 1.5783633 1.5783633 0 0 0 291.65039 840.45703 L 298.95312 836.36719 A 1.5783633 1.5783633 0 0 0 299.58008 836.49805 A 1.5783633 1.5783633 0 0 0 301.1582 834.91992 A 1.5783633 1.5783633 0 0 0 300.76172 833.87695 L 307.01367 825.57617 A 1.5783633 1.5783633 0 0 0 308.29688 824.12305 L 317.44727 816.40625 A 1.5783633 1.5783633 0 0 0 317.97266 816.49805 A 1.5783633 1.5783633 0 0 0 319.55078 814.91992 A 1.5783633 1.5783633 0 0 0 319.38281 814.21289 L 325 802.37109 A 1.5783633 1.5783633 0 0 0 326.33789 800.8125 A 1.5783633 1.5783633 0 0 0 325.8125 799.63867 L 327.49609 788.97266 A 1.5783633 1.5783633 0 0 0 328.30078 787.59766 A 1.5783633 1.5783633 0 0 0 327.83789 786.48242 L 328.94727 776.63867 A 1.5783633 1.5783633 0 0 0 329.73047 775.27734 A 1.5783633 1.5783633 0 0 0 329.01562 773.95703 L 329.05469 770.49609 A 1.5783633 1.5783633 0 0 0 329.73047 769.20508 A 1.5783633 1.5783633 0 0 0 328.60156 767.69336 L 325.70898 749.23438 A 1.5783633 1.5783633 0 0 0 326.1582 748.13477 A 1.5783633 1.5783633 0 0 0 324.82812 746.57812 L 316.25586 725.5918 A 1.5783633 1.5783633 0 0 0 316.33789 725.09766 A 1.5783633 1.5783633 0 0 0 314.75781 723.51953 A 1.5783633 1.5783633 0 0 0 314.19531 723.625 L 306.23633 718.25586 A 1.5783633 1.5783633 0 0 0 304.65625 716.70117 A 1.5783633 1.5783633 0 0 0 303.6582 717.05859 L 297.78906 714.91797 A 1.5783633 1.5783633 0 0 0 296.32422 713.92383 z "
       id="circle5525" />
    <path
       style="color:#000000;clip-rule:nonzero;display:inline;overflow:visible;visibility:visible;opacity:1;isolation:auto;mix-blend-mode:normal;color-interpolation:sRGB;color-interpolation-filters:linearRGB;solid-color:#000000;solid-opacity:1;fill:#7a200d;fill-opacity:1;fill-rule:evenodd;stroke:none;stroke-width:1;stroke-linecap:butt;stroke-linejoin:miter;stroke-miterlimit:4;stroke-dasharray:none;stroke-dashoffset:0;stroke-opacity:1;color-rendering:auto;image-rendering:auto;shape-rendering:auto;text-rendering:auto;enable-background:accumulate"
       d="m 161.42857,760.53185 -1.07143,4.95535 4.0625,0.49108 0.0893,9.6875 5.80357,0.0893 -1.47321,-14.82143 z"
       id="path5602"
       inkscape:connector-curvature="0" />
    <path
       style="color:#000000;clip-rule:nonzero;display:inline;overflow:visible;visibility:visible;opacity:1;isolation:auto;mix-blend-mode:normal;color-interpolation:sRGB;color-interpolation-filters:linearRGB;solid-color:#000000;solid-opacity:1;fill:#7a200d;fill-opacity:1;fill-rule:evenodd;stroke:none;stroke-width:1;stroke-linecap:butt;stroke-linejoin:miter;stroke-miterlimit:4;stroke-dasharray:none;stroke-dashoffset:0;stroke-opacity:1;color-rendering:auto;image-rendering:auto;shape-rendering:auto;text-rendering:auto;enable-background:accumulate"
       d="m 164.91071,752.31756 6.20536,-3.70536 8.70536,2.00893 0.49107,-3.88393 4.55357,-0.58035 1.42857,10.26785 -6.83035,-0.13392 z"
       id="path5604"
       inkscape:connector-curvature="0" />
    <path
       style="color:#000000;clip-rule:nonzero;display:inline;overflow:visible;visibility:visible;opacity:1;isolation:auto;mix-blend-mode:normal;color-interpolation:sRGB;color-interpolation-filters:linearRGB;solid-color:#000000;solid-opacity:1;fill:#7a200d;fill-opacity:1;fill-rule:evenodd;stroke:none;stroke-width:1;stroke-linecap:butt;stroke-linejoin:miter;stroke-miterlimit:4;stroke-dasharray:none;stroke-dashoffset:0;stroke-opacity:1;color-rendering:auto;image-rendering:auto;shape-rendering:auto;text-rendering:auto;enable-background:accumulate"
       d="m 159.09903,778.04265 11.49048,0.12627 0.0631,8.33376 -11.61676,-0.25254 z"
       id="path5608"
       inkscape:connector-curvature="0" />
    <path
       style="color:#000000;clip-rule:nonzero;display:inline;overflow:visible;visibility:visible;opacity:1;isolation:auto;mix-blend-mode:normal;color-interpolation:sRGB;color-interpolation-filters:linearRGB;solid-color:#000000;solid-opacity:1;fill:#7a200d;fill-opacity:1;fill-rule:evenodd;stroke:none;stroke-width:1;stroke-linecap:butt;stroke-linejoin:miter;stroke-miterlimit:4;stroke-dasharray:none;stroke-dashoffset:0;stroke-opacity:1;color-rendering:auto;image-rendering:auto;shape-rendering:auto;text-rendering:auto;enable-background:accumulate"
       d="m 165.26786,788.25506 5.53571,0 2.27679,9.10714 -1.02679,5.04465 -9.41964,2.14285 -1.20536,-5.53571 6.25,-1.33929 -3.03571,-7.23214 z"
       id="path5610"
       inkscape:connector-curvature="0" />
    <path
       style="color:#000000;clip-rule:nonzero;display:inline;overflow:visible;visibility:visible;opacity:1;isolation:auto;mix-blend-mode:normal;color-interpolation:sRGB;color-interpolation-filters:linearRGB;solid-color:#000000;solid-opacity:1;fill:#7a200d;fill-opacity:1;fill-rule:evenodd;stroke:none;stroke-width:1;stroke-linecap:butt;stroke-linejoin:miter;stroke-miterlimit:4;stroke-dasharray:none;stroke-dashoffset:0;stroke-opacity:1;color-rendering:auto;image-rendering:auto;shape-rendering:auto;text-rendering:auto;enable-background:accumulate"
       d="m 188.61607,763.65685 -8.70536,-0.80357 -0.84821,11.5625 1.07143,1.25 9.55357,0.84821 0,-0.89286 -4.33036,-0.35714 0.53572,-11.16071 3.21428,0.17857 z"
       id="path5612"
       inkscape:connector-curvature="0" />
    <path
       style="color:#000000;clip-rule:nonzero;display:inline;overflow:visible;visibility:visible;opacity:1;isolation:auto;mix-blend-mode:normal;color-interpolation:sRGB;color-interpolation-filters:linearRGB;solid-color:#000000;solid-opacity:1;fill:#7a200d;fill-opacity:1;fill-rule:evenodd;stroke:none;stroke-width:1;stroke-linecap:butt;stroke-linejoin:miter;stroke-miterlimit:4;stroke-dasharray:none;stroke-dashoffset:0;stroke-opacity:1;color-rendering:auto;image-rendering:auto;shape-rendering:auto;text-rendering:auto;enable-background:accumulate"
       d="m 189.86607,777.58542 -10,-0.80357 -1.69643,1.07143 -0.35714,7.41071 0.84821,1.78571 10.26786,1.47322 0.13393,-1.11607 -5.625,-0.71429 0.98214,-8.79464 5.26786,0.40178 z"
       id="path5614"
       inkscape:connector-curvature="0" />
    <path
       style="color:#000000;clip-rule:nonzero;display:inline;overflow:visible;visibility:visible;opacity:1;isolation:auto;mix-blend-mode:normal;color-interpolation:sRGB;color-interpolation-filters:linearRGB;solid-color:#000000;solid-opacity:1;fill:#7a200d;fill-opacity:1;fill-rule:evenodd;stroke:none;stroke-width:1;stroke-linecap:butt;stroke-linejoin:miter;stroke-miterlimit:4;stroke-dasharray:none;stroke-dashoffset:0;stroke-opacity:1;color-rendering:auto;image-rendering:auto;shape-rendering:auto;text-rendering:auto;enable-background:accumulate"
       d="m 178.16964,788.6122 -0.9375,1.47322 1.65179,6.42857 8.39286,2.72321 1.16071,-9.33035 -9.82143,-1.74107 z"
       id="path5616"
       inkscape:connector-curvature="0" />
    <path
       style="color:#000000;clip-rule:nonzero;display:inline;overflow:visible;visibility:visible;opacity:1;isolation:auto;mix-blend-mode:normal;color-interpolation:sRGB;color-interpolation-filters:linearRGB;solid-color:#000000;solid-opacity:1;fill:#7a200d;fill-opacity:1;fill-rule:evenodd;stroke:none;stroke-width:1;stroke-linecap:butt;stroke-linejoin:miter;stroke-miterlimit:4;stroke-dasharray:none;stroke-dashoffset:0;stroke-opacity:1;color-rendering:auto;image-rendering:auto;shape-rendering:auto;text-rendering:auto;enable-background:accumulate"
       d="m 165.35714,812.45149 5.89286,-1.69643 2.99107,3.30357 4.10714,1.20536 -0.3125,9.33036 -2.63392,0.0446 -3.79465,-1.60714 -4.82143,-2.94643 z"
       id="path5618"
       inkscape:connector-curvature="0" />
    <path
       style="color:#000000;clip-rule:nonzero;display:inline;overflow:visible;visibility:visible;opacity:1;isolation:auto;mix-blend-mode:normal;color-interpolation:sRGB;color-interpolation-filters:linearRGB;solid-color:#000000;solid-opacity:1;fill:#7a200d;fill-opacity:1;fill-rule:evenodd;stroke:none;stroke-width:1;stroke-linecap:butt;stroke-linejoin:miter;stroke-miterlimit:4;stroke-dasharray:none;stroke-dashoffset:0;stroke-opacity:1;color-rendering:auto;image-rendering:auto;shape-rendering:auto;text-rendering:auto;enable-background:accumulate"
       d="m 180.31223,809.48365 -0.69448,15.02602 5.3033,0.1894 2.14657,-14.89975 -5.61897,-0.82074 z"
       id="path5620"
       inkscape:connector-curvature="0" />
    <circle
       style="opacity:1;fill:#7a200d;fill-opacity:1;fill-rule:evenodd;stroke:none;stroke-width:1;stroke-linecap:butt;stroke-linejoin:miter;stroke-miterlimit:4;stroke-dasharray:none;stroke-dashoffset:0;stroke-opacity:1"
       id="path5622"
       cx="177.78685"
       cy="804.08563"
       r="1.9887378" />
    <path
       style="color:#000000;clip-rule:nonzero;display:inline;overflow:visible;visibility:visible;opacity:1;isolation:auto;mix-blend-mode:normal;color-interpolation:sRGB;color-interpolation-filters:linearRGB;solid-color:#000000;solid-opacity:1;fill:#7a200d;fill-opacity:1;fill-rule:evenodd;stroke:none;stroke-width:1;stroke-linecap:butt;stroke-linejoin:miter;stroke-miterlimit:4;stroke-dasharray:none;stroke-dashoffset:0;stroke-opacity:1;color-rendering:auto;image-rendering:auto;shape-rendering:auto;text-rendering:auto;enable-background:accumulate"
       d="m 261.50324,772.17114 -5.80838,-1.51523 -1.76776,0.56821 -4.98763,23.80172 0.44194,2.02031 3.40927,1.45209 z"
       id="path5626"
       inkscape:connector-curvature="0"
       sodipodi:nodetypes="ccccccc" />
    <path
       style="color:#000000;clip-rule:nonzero;display:inline;overflow:visible;visibility:visible;opacity:1;isolation:auto;mix-blend-mode:normal;color-interpolation:sRGB;color-interpolation-filters:linearRGB;solid-color:#000000;solid-opacity:1;fill:#7a200d;fill-opacity:1;fill-rule:evenodd;stroke:none;stroke-width:1;stroke-linecap:butt;stroke-linejoin:miter;stroke-miterlimit:4;stroke-dasharray:none;stroke-dashoffset:0;stroke-opacity:1;color-rendering:auto;image-rendering:auto;shape-rendering:auto;text-rendering:auto;enable-background:accumulate"
       d="m 224.56954,754.99855 3.8512,0.94702 3.85121,-11.93243 -3.53553,-0.94702 z"
       id="path5628"
       inkscape:connector-curvature="0" />
    <path
       style="color:#000000;clip-rule:nonzero;display:inline;overflow:visible;visibility:visible;opacity:1;isolation:auto;mix-blend-mode:normal;color-interpolation:sRGB;color-interpolation-filters:linearRGB;solid-color:#000000;solid-opacity:1;fill:#7a200d;fill-opacity:1;fill-rule:evenodd;stroke:none;stroke-width:1;stroke-linecap:butt;stroke-linejoin:miter;stroke-miterlimit:4;stroke-dasharray:none;stroke-dashoffset:0;stroke-opacity:1;color-rendering:auto;image-rendering:auto;shape-rendering:auto;text-rendering:auto;enable-background:accumulate"
       d="m 257.3995,741.42462 -3.85121,1.01016 3.09359,11.67989 4.9245,-1.13643 z"
       id="path5630"
       inkscape:connector-curvature="0" />
    <path
       style="color:#000000;clip-rule:nonzero;display:inline;overflow:visible;visibility:visible;opacity:1;isolation:auto;mix-blend-mode:normal;color-interpolation:sRGB;color-interpolation-filters:linearRGB;solid-color:#000000;solid-opacity:1;fill:#7a200d;fill-opacity:1;fill-rule:evenodd;stroke:none;stroke-width:1;stroke-linecap:butt;stroke-linejoin:miter;stroke-miterlimit:4;stroke-dasharray:none;stroke-dashoffset:0;stroke-opacity:1;color-rendering:auto;image-rendering:auto;shape-rendering:auto;text-rendering:auto;enable-background:accumulate"
       d="m 225.08929,791.91578 5.44642,-1.25 -1.875,-18.39286 -5.26785,-0.53572 z"
       id="path5632"
       inkscape:connector-curvature="0" />
    <path
       style="color:#000000;clip-rule:nonzero;display:inline;overflow:visible;visibility:visible;opacity:1;isolation:auto;mix-blend-mode:normal;color-interpolation:sRGB;color-interpolation-filters:linearRGB;solid-color:#000000;solid-opacity:1;fill:#7a200d;fill-opacity:1;fill-rule:evenodd;stroke:none;stroke-width:1;stroke-linecap:butt;stroke-linejoin:miter;stroke-miterlimit:4;stroke-dasharray:none;stroke-dashoffset:0;stroke-opacity:1;color-rendering:auto;image-rendering:auto;shape-rendering:auto;text-rendering:auto;enable-background:accumulate"
       d="m 296.51758,714.99609 -13.66016,0.0899 0.3125,6.29492 1.92188,1.04883 -0.0195,0.0215 0.34961,2.39258 -2.28516,1.24023 3.09375,15.13672 2.54687,0.34766 0.97852,1.51953 6.44922,-1.43555 -0.19336,-1.69336 2.7793,-1.07617 -0.625,-2.80273 12.68164,-3.53906 1.33984,-9.15235 L 305,718.47852 Z m -0.13281,0.53516 8.03515,3.08008 6.65235,4.24219 -1.60743,8.34765 -11.67578,3.17774 -2.45117,-11.00977 -2.51758,0.19336 -0.43554,-2.37109 -2.19922,-1.25 -3.72852,0.92187 -0.4565,0.58736 -1.76367,-1.04883 -0.2178,-4.64595 z"
       id="path5634"
       inkscape:connector-curvature="0"
       sodipodi:nodetypes="cccccccccccccccccccccccccccccccc" />
    <path
       style="color:#000000;clip-rule:nonzero;display:inline;overflow:visible;visibility:visible;opacity:1;isolation:auto;mix-blend-mode:normal;color-interpolation:sRGB;color-interpolation-filters:linearRGB;solid-color:#000000;solid-opacity:1;fill:#7a200d;fill-opacity:1;fill-rule:evenodd;stroke:none;stroke-width:1;stroke-linecap:butt;stroke-linejoin:miter;stroke-miterlimit:4;stroke-dasharray:none;stroke-dashoffset:0;stroke-opacity:1;color-rendering:auto;image-rendering:auto;shape-rendering:auto;text-rendering:auto;enable-background:accumulate"
       d="m 288.83929,767.54078 0.0893,16.78571 -3.48214,13.92857 -2.05357,6.96429 0.44643,0.98214 4.91071,1.69643 2.67857,-1.42857 5.89286,-20.35715 -2.14286,-19.01785 -1.16071,-1.07143 -3.92857,0.26786 z"
       id="path5640"
       inkscape:connector-curvature="0" />
    <path
       style="color:#000000;clip-rule:nonzero;display:inline;overflow:visible;visibility:visible;opacity:1;isolation:auto;mix-blend-mode:normal;color-interpolation:sRGB;color-interpolation-filters:linearRGB;solid-color:#000000;solid-opacity:1;fill:#7a200d;fill-opacity:1;fill-rule:evenodd;stroke:none;stroke-width:1;stroke-linecap:butt;stroke-linejoin:miter;stroke-miterlimit:4;stroke-dasharray:none;stroke-dashoffset:0;stroke-opacity:1;color-rendering:auto;image-rendering:auto;shape-rendering:auto;text-rendering:auto;enable-background:accumulate"
       d="m 282.5,812.80863 1.25,-1.16071 4.55357,0.26786 2.32143,1.60714 -0.0893,1.875 -1.25,1.78571 -3.66072,2.94643 -0.71428,10.26786 3.75,3.03571 6.78571,-3.83928 4.46429,-8.75 4.46428,-3.75 1.96429,-0.0893 4.55357,3.57143 -3.92857,3.57143 -7.32143,10.89286 -9.375,5.26785 -10.625,-0.71428 0.44643,-8.66072 0.35714,-5.89285 1.07143,-9.55358 z"
       id="path5642"
       inkscape:connector-curvature="0" />
    <path
       style="color:#000000;clip-rule:nonzero;display:inline;overflow:visible;visibility:visible;opacity:1;isolation:auto;mix-blend-mode:normal;color-interpolation:sRGB;color-interpolation-filters:linearRGB;solid-color:#000000;solid-opacity:1;fill:#7a200d;fill-opacity:1;fill-rule:evenodd;stroke:none;stroke-width:1;stroke-linecap:butt;stroke-linejoin:miter;stroke-miterlimit:4;stroke-dasharray:none;stroke-dashoffset:0;stroke-opacity:1;color-rendering:auto;image-rendering:auto;shape-rendering:auto;text-rendering:auto;enable-background:accumulate"
       d="m 297.995,807.14767 0.37881,3.15673 3.40926,1.38896 2.77792,-1.76777 7.32361,-18.43528 1.51523,-8.20749 4.29315,-18.18275 -0.50508,-2.14657 -2.14657,-1.76777 -3.66181,0.75762 -1.6415,3.91434 -1.89403,11.99556 -1.76777,0.12627 -2.14657,-11.74302 -2.52538,-3.03046 -2.14658,0.50507 -1.26269,2.27285 2.65165,12.87944 1.01015,2.52538 1.89404,1.38896 2.90419,0.75762 z"
       id="path5644"
       inkscape:connector-curvature="0" />
    <path
       style="color:#000000;clip-rule:nonzero;display:inline;overflow:visible;visibility:visible;opacity:1;isolation:auto;mix-blend-mode:normal;color-interpolation:sRGB;color-interpolation-filters:linearRGB;solid-color:#000000;solid-opacity:1;fill:#7a200d;fill-opacity:1;fill-rule:evenodd;stroke:none;stroke-width:1;stroke-linecap:butt;stroke-linejoin:miter;stroke-miterlimit:4;stroke-dasharray:none;stroke-dashoffset:0;stroke-opacity:1;color-rendering:auto;image-rendering:auto;shape-rendering:auto;text-rendering:auto;enable-background:accumulate"
       d="m 327.76786,775.4872 -4.73214,-0.35714 -2.14286,0.44643 -1.25,1.42857 -2.05357,14.91072 -7.67857,19.10714 -0.0893,2.14286 4.73214,3.75 3.48215,-2.76786 6.875,-13.66072 1.875,-13.03571 z"
       id="path5648"
       inkscape:connector-curvature="0" />
    <path
       style="color:#000000;clip-rule:nonzero;display:inline;overflow:visible;visibility:visible;opacity:1;isolation:auto;mix-blend-mode:normal;color-interpolation:sRGB;color-interpolation-filters:linearRGB;solid-color:#000000;solid-opacity:1;fill:#7a200d;fill-opacity:1;fill-rule:evenodd;stroke:none;stroke-width:1;stroke-linecap:butt;stroke-linejoin:miter;stroke-miterlimit:4;stroke-dasharray:none;stroke-dashoffset:0;stroke-opacity:1;color-rendering:auto;image-rendering:auto;shape-rendering:auto;text-rendering:auto;enable-background:accumulate"
       d="m 328.125,769.50506 -3.75,-0.26786 -1.51786,-0.89285 -0.53571,-4.28572 -1.07143,-2.76785 -2.67857,-2.67858 -2.23214,-7.5 0.89285,-2.14285 6.33929,-2.41072 0.98214,1.60715 z"
       id="path5650"
       inkscape:connector-curvature="0" />
    <path
       style="color:#000000;clip-rule:nonzero;display:inline;overflow:visible;visibility:visible;opacity:1;isolation:auto;mix-blend-mode:normal;color-interpolation:sRGB;color-interpolation-filters:linearRGB;solid-color:#000000;solid-opacity:1;fill:#7a200d;fill-opacity:1;fill-rule:evenodd;stroke:none;stroke-width:1;stroke-linecap:butt;stroke-linejoin:miter;stroke-miterlimit:4;stroke-dasharray:none;stroke-dashoffset:0;stroke-opacity:1;color-rendering:auto;image-rendering:auto;shape-rendering:auto;text-rendering:auto;enable-background:accumulate"
       d="m 316.05148,727.91383 -2.27284,0.37881 -1.13643,5.61897 -8.9651,2.65165 -0.1894,1.19956 0.94701,3.78807 1.95717,1.01016 4.9245,1.32582 10.03839,-3.283 z"
       id="path5652"
       inkscape:connector-curvature="0" />
    <path
       style="color:#000000;clip-rule:nonzero;display:inline;overflow:visible;visibility:visible;opacity:1;isolation:auto;mix-blend-mode:normal;color-interpolation:sRGB;color-interpolation-filters:linearRGB;solid-color:#000000;solid-opacity:1;fill:#7a200d;fill-opacity:1;fill-rule:evenodd;stroke:none;stroke-width:1;stroke-linecap:butt;stroke-linejoin:miter;stroke-miterlimit:4;stroke-dasharray:none;stroke-dashoffset:0;stroke-opacity:1;color-rendering:auto;image-rendering:auto;shape-rendering:auto;text-rendering:auto;enable-background:accumulate"
       d="m 284.1054,749.69525 2.90419,8.7757 6.56599,-2.20971 1.32583,-2.08344 -2.14657,-6.56599 -2.58852,-0.88389 -6.12405,1.70464 z"
       id="path5654"
       inkscape:connector-curvature="0" />
    <path
       style="color:#000000;clip-rule:nonzero;display:inline;overflow:visible;visibility:visible;opacity:1;isolation:auto;mix-blend-mode:normal;color-interpolation:sRGB;color-interpolation-filters:linearRGB;solid-color:#000000;solid-opacity:1;fill:#7a200d;fill-opacity:1;fill-rule:evenodd;stroke:none;stroke-width:1;stroke-linecap:butt;stroke-linejoin:miter;stroke-miterlimit:4;stroke-dasharray:none;stroke-dashoffset:0;stroke-opacity:1;color-rendering:auto;image-rendering:auto;shape-rendering:auto;text-rendering:auto;enable-background:accumulate"
       d="m 229.68344,803.92781 -0.75762,15.5311 2.90419,9.09137 13.44766,0.0631 6.69226,-9.78586 -0.31568,-13.82646 -11.17481,-8.83884 z"
       id="path5656"
       inkscape:connector-curvature="0" />
    <path
       id="path5658"
       style="opacity:1;fill:#7a200d;fill-opacity:1;fill-rule:evenodd;stroke:none;stroke-width:1;stroke-linecap:butt;stroke-linejoin:miter;stroke-miterlimit:4;stroke-dasharray:none;stroke-dashoffset:0;stroke-opacity:1"
       d="m 245.08827,718.28583 a 4.6088209,4.6088209 0 0 1 -4.60882,4.60882 4.6088209,4.6088209 0 0 1 -4.60882,-4.60882 4.6088209,4.6088209 0 0 1 4.60882,-4.60882 4.6088209,4.6088209 0 0 1 4.60882,4.60882 z m 0.22358,0.0471 a 4.8557839,4.8557839 0 0 1 -4.85578,4.85578 4.8557839,4.8557839 0 0 1 -4.85578,-4.85578 4.8557839,4.8557839 0 0 1 4.85578,-4.85579 4.8557839,4.8557839 0 0 1 4.85578,4.85579 z m 1.51523,0 a 6.3710127,6.3710127 0 0 1 -6.37101,6.37101 6.3710127,6.3710127 0 0 1 -6.37101,-6.37101 6.3710127,6.3710127 0 0 1 6.37101,-6.37102 6.3710127,6.3710127 0 0 1 6.37101,6.37102 z" />
    <rect
       style="color:#000000;clip-rule:nonzero;display:inline;overflow:visible;visibility:visible;opacity:1;isolation:auto;mix-blend-mode:normal;color-interpolation:sRGB;color-interpolation-filters:linearRGB;solid-color:#000000;solid-opacity:1;fill:none;fill-opacity:1;fill-rule:evenodd;stroke:#7a200d;stroke-width:1;stroke-linecap:butt;stroke-linejoin:miter;stroke-miterlimit:4;stroke-dasharray:none;stroke-dashoffset:0;stroke-opacity:1;color-rendering:auto;image-rendering:auto;shape-rendering:auto;text-rendering:auto;enable-background:accumulate"
       id="rect5670"
       width="205.35715"
       height="149.28572"
       x="136.78572"
       y="700.57648"
       inkscape:export-xdpi="360"
       inkscape:export-ydpi="360" />
    <path
       style="color:#000000;clip-rule:nonzero;display:inline;overflow:visible;visibility:visible;opacity:1;isolation:auto;mix-blend-mode:normal;color-interpolation:sRGB;color-interpolation-filters:linearRGB;solid-color:#000000;solid-opacity:1;fill:none;fill-opacity:1;fill-rule:evenodd;stroke:#de3a18;stroke-width:1;stroke-linecap:butt;stroke-linejoin:miter;stroke-miterlimit:4;stroke-dasharray:8, 4;stroke-dashoffset:0;stroke-opacity:1;color-rendering:auto;image-rendering:auto;shape-rendering:auto;text-rendering:auto;enable-background:accumulate"
       d="m 271.4785,711.43572 25.50635,0 9.72272,3.91434 11.74302,8.46003 9.21764,23.35978 3.40927,22.47589 -0.37881,2.65165 -8.08122,-1.38896 -1.76777,-2.14657 -0.3788,-5.68211 -2.52539,-3.53553 -3.28299,-7.95496 -4.29315,-6.43972 -6.43972,-2.27284 -9.84899,4.29315 2.27284,6.56599 -1.38896,3.40926 -7.70241,2.52538 -3.91434,-1.13642 -1.76777,-1.6415 -11.61675,-43.31029 z"
       id="path5693"
       inkscape:connector-curvature="0" />
    <path
       style="color:#000000;clip-rule:nonzero;display:inline;overflow:visible;visibility:visible;opacity:1;isolation:auto;mix-blend-mode:normal;color-interpolation:sRGB;color-interpolation-filters:linearRGB;solid-color:#000000;solid-opacity:1;fill:none;fill-opacity:1;fill-rule:evenodd;stroke:#de3a18;stroke-width:1;stroke-linecap:butt;stroke-linejoin:miter;stroke-miterlimit:4;stroke-dasharray:8, 4;stroke-dashoffset:0;stroke-opacity:1;color-rendering:auto;image-rendering:auto;shape-rendering:auto;text-rendering:auto;enable-background:accumulate"
       d="m 284.61048,769.8983 4.41942,-5.55584 5.3033,0.25254 1.89403,0.75761 2.02031,-2.39911 16.79379,-3.03046 3.78807,3.53554 -0.63135,6.43972 2.27285,3.15673 10.6066,1.38896 -1.51523,18.05647 -1.38896,2.39911 -41.66879,-10.10152 -2.02031,-2.14658 z"
       id="path5695"
       inkscape:connector-curvature="0" />
    <path
       style="color:#000000;clip-rule:nonzero;display:inline;overflow:visible;visibility:visible;opacity:1;isolation:auto;mix-blend-mode:normal;color-interpolation:sRGB;color-interpolation-filters:linearRGB;solid-color:#000000;solid-opacity:1;fill:none;fill-opacity:1;fill-rule:evenodd;stroke:#de3a18;stroke-width:1;stroke-linecap:butt;stroke-linejoin:miter;stroke-miterlimit:4;stroke-dasharray:8, 4;stroke-dashoffset:0;stroke-opacity:1;color-rendering:auto;image-rendering:auto;shape-rendering:auto;text-rendering:auto;enable-background:accumulate"
       d="m 286.12571,786.81835 41.54252,9.72272 0.37881,2.65165 -0.50508,2.27285 -7.3236,15.65736 -11.36422,8.46003 -7.3236,11.61675 -10.73288,5.80838 -13.13198,-1.01015 -1.51523,-2.02031 1.6415,-26.76904 1.26269,-7.19734 5.3033,-18.30901 z"
       id="path5697"
       inkscape:connector-curvature="0" />
    <path
       style="color:#000000;clip-rule:nonzero;display:inline;overflow:visible;visibility:visible;opacity:1;isolation:auto;mix-blend-mode:normal;color-interpolation:sRGB;color-interpolation-filters:linearRGB;solid-color:#000000;solid-opacity:1;fill:none;fill-opacity:1;fill-rule:evenodd;stroke:#de3a18;stroke-width:1;stroke-linecap:butt;stroke-linejoin:miter;stroke-miterlimit:4;stroke-dasharray:8,4;stroke-dashoffset:0;stroke-opacity:1;color-rendering:auto;image-rendering:auto;shape-rendering:auto;text-rendering:auto;enable-background:accumulate"
       d="m 168.75,741.46935 19.46429,-2.67857 2.85714,2.32142 2.85714,28.75 -2.67857,27.32143 -1.25,15.89286 -1.78571,17.5 -15.71429,0.17857 -11.42857,-6.07143 -4.28572,-16.42857 -4.64285,-17.67857 0.89285,-18.57143 3.39286,-15 2.14286,-7.32143 z"
       id="path5699"
       inkscape:connector-curvature="0" />
    <path
       style="color:#000000;clip-rule:nonzero;display:inline;overflow:visible;visibility:visible;opacity:1;isolation:auto;mix-blend-mode:normal;color-interpolation:sRGB;color-interpolation-filters:linearRGB;solid-color:#000000;solid-opacity:1;fill:none;fill-opacity:1;fill-rule:evenodd;stroke:#de3a18;stroke-width:1;stroke-linecap:butt;stroke-linejoin:miter;stroke-miterlimit:4;stroke-dasharray:6,2;stroke-dashoffset:0;stroke-opacity:1;color-rendering:auto;image-rendering:auto;shape-rendering:auto;text-rendering:auto;enable-background:accumulate"
       d="M 233.92857,709.14792 245,708.43363 l 3.57143,3.57143 2.5,11.42857 9.82143,11.42857 6.78571,22.14286 0,10.89286 -8.75,39.82143 -0.53571,13.92857 -9.46429,13.21428 -20.71428,-0.35714 -8.57143,-14.46428 0.53571,-14.46429 -2.5,-10.35714 -3.39286,-28.39286 2.14286,-11.07143 7.85714,-20 z"
       id="path5701"
       inkscape:connector-curvature="0" />
    <text
       xml:space="preserve"
       style="font-style:normal;font-weight:normal;font-size:6.61194181px;line-height:125%;font-family:sans-serif;letter-spacing:0px;word-spacing:0px;fill:#de3a18;fill-opacity:1;stroke:none;stroke-width:1px;stroke-linecap:butt;stroke-linejoin:miter;stroke-opacity:1"
       x="172.16528"
       y="762.38623"
       id="text5703"
       sodipodi:linespacing="125%"><tspan
         sodipodi:role="line"
         id="tspan5705"
         x="172.16528"
         y="762.38623"
         style="font-style:normal;font-variant:normal;font-weight:normal;font-stretch:normal;font-family:'Segoe Script';-inkscape-font-specification:'Segoe Script';fill:#de3a18;fill-opacity:1">1</tspan></text>
    <text
       sodipodi:linespacing="125%"
       id="text5707"
       y="732.92194"
       x="247.87956"
       style="font-style:normal;font-weight:normal;font-size:6.61194181px;line-height:125%;font-family:sans-serif;letter-spacing:0px;word-spacing:0px;fill:#de3a18;fill-opacity:1;stroke:none;stroke-width:1px;stroke-linecap:butt;stroke-linejoin:miter;stroke-opacity:1"
       xml:space="preserve"><tspan
         style="font-style:normal;font-variant:normal;font-weight:normal;font-stretch:normal;font-family:'Segoe Script';-inkscape-font-specification:'Segoe Script';fill:#de3a18;fill-opacity:1"
         y="732.92194"
         x="247.87956"
         id="tspan5709"
         sodipodi:role="line">2</tspan></text>
    <text
       xml:space="preserve"
       style="font-style:normal;font-weight:normal;font-size:6.61194181px;line-height:125%;font-family:sans-serif;letter-spacing:0px;word-spacing:0px;fill:#de3a18;fill-opacity:1;stroke:none;stroke-width:1px;stroke-linecap:butt;stroke-linejoin:miter;stroke-opacity:1"
       x="278.77243"
       y="737.92194"
       id="text5711"
       sodipodi:linespacing="125%"><tspan
         sodipodi:role="line"
         id="tspan5713"
         x="278.77243"
         y="737.92194"
         style="font-style:normal;font-variant:normal;font-weight:normal;font-stretch:normal;font-family:'Segoe Script';-inkscape-font-specification:'Segoe Script';fill:#de3a18;fill-opacity:1">3</tspan></text>
    <text
       sodipodi:linespacing="125%"
       id="text5715"
       y="767.92194"
       x="304.84387"
       style="font-style:normal;font-weight:normal;font-size:6.61194181px;line-height:125%;font-family:sans-serif;letter-spacing:0px;word-spacing:0px;fill:#de3a18;fill-opacity:1;stroke:none;stroke-width:1px;stroke-linecap:butt;stroke-linejoin:miter;stroke-opacity:1"
       xml:space="preserve"><tspan
         style="font-style:normal;font-variant:normal;font-weight:normal;font-stretch:normal;font-family:'Segoe Script';-inkscape-font-specification:'Segoe Script';fill:#de3a18;fill-opacity:1"
         y="767.92194"
         x="304.84387"
         id="tspan5717"
         sodipodi:role="line">4</tspan></text>
    <text
       xml:space="preserve"
       style="font-style:normal;font-weight:normal;font-size:6.61194181px;line-height:125%;font-family:sans-serif;letter-spacing:0px;word-spacing:0px;fill:#de3a18;fill-opacity:1;stroke:none;stroke-width:1px;stroke-linecap:butt;stroke-linejoin:miter;stroke-opacity:1"
       x="293.77243"
       y="816.67194"
       id="text5719"
       sodipodi:linespacing="125%"><tspan
         sodipodi:role="line"
         id="tspan5721"
         x="293.77243"
         y="816.67194"
         style="font-style:normal;font-variant:normal;font-weight:normal;font-stretch:normal;font-family:'Segoe Script';-inkscape-font-specification:'Segoe Script';fill:#de3a18;fill-opacity:1">5</tspan></text>
  </g>
</svg>
